<mxfile host="65bd71144e">
    <diagram id="AFPm3s70NBBsmX_n86MJ" name="Sales rank">
        <mxGraphModel dx="1141" dy="847" grid="1" gridSize="10" guides="1" tooltips="1" connect="1" arrows="1" fold="1" page="1" pageScale="1" pageWidth="850" pageHeight="1100" math="0" shadow="0">
            <root>
                <mxCell id="0"/>
                <mxCell id="1" parent="0"/>
            </root>
        </mxGraphModel>
    </diagram>
    <diagram id="jKgEYjnHm2MC6o7U8wDL" name="Dropbox">
        <mxGraphModel dx="931" dy="1167" grid="1" gridSize="10" guides="1" tooltips="1" connect="1" arrows="1" fold="1" page="1" pageScale="1" pageWidth="850" pageHeight="1100" math="0" shadow="0">
            <root>
                <mxCell id="DSjtpxqueDzjzjg9a0Ww-0"/>
                <mxCell id="DSjtpxqueDzjzjg9a0Ww-1" parent="DSjtpxqueDzjzjg9a0Ww-0"/>
                <mxCell id="DSjtpxqueDzjzjg9a0Ww-2" value="" style="outlineConnect=0;fontColor=#232F3E;gradientColor=none;fillColor=#232F3E;strokeColor=none;dashed=0;verticalLabelPosition=bottom;verticalAlign=top;align=center;html=1;fontSize=12;fontStyle=0;aspect=fixed;pointerEvents=1;shape=mxgraph.aws4.client;" parent="DSjtpxqueDzjzjg9a0Ww-1" vertex="1">
                    <mxGeometry x="80" y="410" width="78" height="76" as="geometry"/>
                </mxCell>
                <mxCell id="DSjtpxqueDzjzjg9a0Ww-3" value="" style="outlineConnect=0;fontColor=#232F3E;gradientColor=none;fillColor=#232F3E;strokeColor=none;dashed=0;verticalLabelPosition=bottom;verticalAlign=top;align=center;html=1;fontSize=12;fontStyle=0;aspect=fixed;pointerEvents=1;shape=mxgraph.aws4.client;" parent="DSjtpxqueDzjzjg9a0Ww-1" vertex="1">
                    <mxGeometry x="80" y="200" width="78" height="76" as="geometry"/>
                </mxCell>
                <mxCell id="waVIdy9hcFAFfPzVqJSb-1" value="&lt;h1&gt;Node A&lt;/h1&gt;&lt;div&gt;/ folder 1&lt;/div&gt;&lt;div&gt;&amp;nbsp; &amp;nbsp; file 1&lt;/div&gt;&lt;div&gt;&amp;nbsp; &amp;nbsp; file 2&lt;/div&gt;&lt;div&gt;&amp;nbsp; &amp;nbsp; / file 3&lt;/div&gt;&lt;div&gt;&amp;nbsp; &amp;nbsp; &amp;nbsp; &amp;nbsp; file 1&lt;/div&gt;&lt;div&gt;&amp;nbsp; &amp;nbsp; &amp;nbsp; &amp;nbsp; file 2&lt;/div&gt;" style="text;html=1;strokeColor=none;fillColor=none;spacing=5;spacingTop=-20;whiteSpace=wrap;overflow=hidden;rounded=0;" vertex="1" parent="DSjtpxqueDzjzjg9a0Ww-1">
                    <mxGeometry x="180" y="190" width="190" height="150" as="geometry"/>
                </mxCell>
                <mxCell id="waVIdy9hcFAFfPzVqJSb-2" value="&lt;h1&gt;Node B&lt;/h1&gt;&lt;div&gt;/ folder 1&lt;/div&gt;&lt;div&gt;&amp;nbsp; &amp;nbsp; file 1&lt;/div&gt;&lt;div&gt;&amp;nbsp; &amp;nbsp; file 2&lt;/div&gt;&lt;div&gt;&amp;nbsp; &amp;nbsp; / file 3&lt;/div&gt;&lt;div&gt;&amp;nbsp; &amp;nbsp; &amp;nbsp; &amp;nbsp; file 1&lt;/div&gt;&lt;div&gt;&amp;nbsp; &amp;nbsp; &amp;nbsp; &amp;nbsp; file 2&lt;/div&gt;" style="text;html=1;strokeColor=none;fillColor=none;spacing=5;spacingTop=-20;whiteSpace=wrap;overflow=hidden;rounded=0;" vertex="1" parent="DSjtpxqueDzjzjg9a0Ww-1">
                    <mxGeometry x="180" y="410" width="190" height="150" as="geometry"/>
                </mxCell>
                <mxCell id="waVIdy9hcFAFfPzVqJSb-3" value="Synchronization service" style="rounded=1;whiteSpace=wrap;html=1;" vertex="1" parent="DSjtpxqueDzjzjg9a0Ww-1">
                    <mxGeometry x="360" y="290" width="120" height="60" as="geometry"/>
                </mxCell>
                <mxCell id="waVIdy9hcFAFfPzVqJSb-4" value="" style="endArrow=classic;html=1;entryX=0;entryY=0.75;entryDx=0;entryDy=0;" edge="1" parent="DSjtpxqueDzjzjg9a0Ww-1" source="DSjtpxqueDzjzjg9a0Ww-2" target="waVIdy9hcFAFfPzVqJSb-3">
                    <mxGeometry width="50" height="50" relative="1" as="geometry">
                        <mxPoint x="270" y="440" as="sourcePoint"/>
                        <mxPoint x="320" y="390" as="targetPoint"/>
                    </mxGeometry>
                </mxCell>
                <mxCell id="waVIdy9hcFAFfPzVqJSb-5" value="" style="endArrow=classic;html=1;entryX=0;entryY=0.5;entryDx=0;entryDy=0;" edge="1" parent="DSjtpxqueDzjzjg9a0Ww-1" source="DSjtpxqueDzjzjg9a0Ww-3" target="waVIdy9hcFAFfPzVqJSb-3">
                    <mxGeometry width="50" height="50" relative="1" as="geometry">
                        <mxPoint x="270" y="440" as="sourcePoint"/>
                        <mxPoint x="320" y="390" as="targetPoint"/>
                    </mxGeometry>
                </mxCell>
            </root>
        </mxGraphModel>
    </diagram>
</mxfile>